<?xml version="1.0" standalone="no"?><!DOCTYPE svg PUBLIC "-//W3C//DTD SVG 1.1//EN" "http://www.w3.org/Graphics/SVG/1.1/DTD/svg11.dtd"><svg t="1701253150782" class="icon" viewBox="0 0 1024 1024" version="1.1" xmlns="http://www.w3.org/2000/svg" p-id="11203" xmlns:xlink="http://www.w3.org/1999/xlink" width="200" height="200"><path d="M554.666667 640h128v42.666667H384v-42.666667h170.666667z m341.333333-384v554.666667H170.666667V256h725.333333zM213.333333 298.666667v469.333333h640V298.666667H213.333333z m128 85.333333v42.666667H256V384h85.333333z m170.666667 0v42.666667H384V384h128z m170.666667 0v42.666667h-128V384h128z m128 0v42.666667h-85.333334V384h85.333334zM341.333333 512v42.666667H256v-42.666667h85.333333z m170.666667 0v42.666667H384v-42.666667h128z m170.666667 0v42.666667h-128v-42.666667h128z m128 0v42.666667h-85.333334v-42.666667h85.333334zM341.333333 640v42.666667H256v-42.666667h85.333333z m469.333334 0v42.666667h-85.333334v-42.666667h85.333334z" fill="#008ed9" p-id="11204"></path></svg>