<?xml version="1.0" standalone="no"?><!DOCTYPE svg PUBLIC "-//W3C//DTD SVG 1.1//EN" "http://www.w3.org/Graphics/SVG/1.1/DTD/svg11.dtd"><svg t="1701253351013" class="icon" viewBox="0 0 1024 1024" version="1.1" xmlns="http://www.w3.org/2000/svg" p-id="14545" xmlns:xlink="http://www.w3.org/1999/xlink" width="200" height="200"><path d="M705.536 765.12v-313.952c0-26.432 1.216-57.152 4.288-93.376-5.536 22.112-9.824 39.328-14.144 47.296L539.008 765.12h-33.184l-157.888-358.816c-4.288-8.608-8.608-25.184-14.144-50.368h-1.216c1.216 22.112 3.072 54.688 3.072 96.448v311.488H277.28V288.928h83.552l139.456 325.632c11.072 25.184 18.432 44.864 20.896 58.368h3.072c11.072-29.504 18.432-49.152 22.112-60.224l142.528-323.776h79.872v474.944h-62.656v1.216h-0.608z m-184.32-707.776c-254.368 0-460.8 206.432-460.8 460.8s206.432 460.8 460.8 460.8 460.8-206.432 460.8-460.8-206.432-460.8-460.8-460.8z m0 866.912c-223.648 0-404.896-181.248-404.896-404.896S297.568 114.464 521.216 114.464 926.112 295.712 926.112 519.36s-181.248 404.896-404.896 404.896z" p-id="14546" fill="#84627b"></path></svg>