<?xml version="1.0" standalone="no"?><!DOCTYPE svg PUBLIC "-//W3C//DTD SVG 1.1//EN" "http://www.w3.org/Graphics/SVG/1.1/DTD/svg11.dtd"><svg t="1701681107462" class="icon" viewBox="0 0 1024 1024" version="1.1" xmlns="http://www.w3.org/2000/svg" p-id="9066" xmlns:xlink="http://www.w3.org/1999/xlink" width="200" height="200"><path d="M832 405.333333c-43.733333 0-81.28 26.24-97.706667 64h-124.586666c-16.426667-37.76-53.973333-64-97.706667-64s-81.28 26.24-97.706667 64h-124.586666c-16.426667-37.76-53.973333-64-97.706667-64-59.093333 0-106.666667 47.573333-106.666667 106.666667s47.573333 106.666667 106.666667 106.666667c43.733333 0 81.28-26.24 97.706667-64h124.586666c16.426667 37.76 53.973333 64 97.706667 64s81.28-26.24 97.706667-64h124.586666c16.426667 37.76 53.973333 64 97.706667 64 59.093333 0 106.666667-47.573333 106.666667-106.666667s-47.573333-106.666667-106.666667-106.666667z" p-id="9067" fill="#c55559"></path></svg>